<?xml version="1.0" encoding="utf-8"?>
<!-- Generator: Adobe Illustrator 18.0.0, SVG Export Plug-In . SVG Version: 6.00 Build 0)  -->
<!DOCTYPE svg PUBLIC "-//W3C//DTD SVG 1.1//EN" "http://www.w3.org/Graphics/SVG/1.1/DTD/svg11.dtd">
<svg version="1.1" id="Layer_1" xmlns="http://www.w3.org/2000/svg" xmlns:xlink="http://www.w3.org/1999/xlink" x="0px" y="0px"
	 viewBox="0 0 648 432" enable-background="new 0 0 648 432" xml:space="preserve">
<path fill="#65CE2E" d="M516.2,0H131.8C118.7,0,108,10.7,108,23.8v384.3c0,13.2,10.7,23.8,23.8,23.8h206.9V264.7h-56.3v-65.2h56.3
	v-48.1c0-55.8,34.1-86.1,83.9-86.1c23.8,0,44.3,1.7,50.3,2.5v58.3h-34.6c-27,0-32.3,13-32.3,31.9v41.6h64.5l-8.4,65.3h-56.2V432
	h110.1c13.2,0,23.8-10.7,23.8-23.8V23.8C540,10.7,529.3,0,516.2,0"/>
</svg>
