<?xml version="1.0" encoding="utf-8"?>
<!-- Generator: Adobe Illustrator 18.0.0, SVG Export Plug-In . SVG Version: 6.00 Build 0)  -->
<!DOCTYPE svg PUBLIC "-//W3C//DTD SVG 1.1//EN" "http://www.w3.org/Graphics/SVG/1.1/DTD/svg11.dtd">
<svg version="1.1" id="Layer_1" xmlns="http://www.w3.org/2000/svg" xmlns:xlink="http://www.w3.org/1999/xlink" x="0px" y="0px"
	 viewBox="0 0 648 432" enable-background="new 0 0 648 432" xml:space="preserve">
<path fill="#65CE2E" d="M324,0C204.7,0,108,96.7,108,216c0,95.4,61.9,176.4,147.7,204.9c10.8,2,14.8-4.6,14.8-10.4
	c0-5.1-0.2-18.7-0.3-36.7c-60.1,13-72.8-29-72.8-29c-9.8-24.9-24-31.6-24-31.6c-19.6-13.4,1.5-13.1,1.5-13.1
	c21.7,1.5,33.1,22.2,33.1,22.2c19.3,33,50.6,23.5,62.9,18c1.9-14,7.5-23.5,13.7-28.9c-48-5.4-98.4-24-98.4-106.7
	c0-23.6,8.4-42.8,22.2-58c-2.4-5.5-9.7-27.4,1.9-57.2c0,0,18.1-5.8,59.4,22.1c17.3-4.8,35.6-7.2,54-7.3c18.4,0.1,36.7,2.5,54,7.3
	c41-27.9,59.1-22.1,59.1-22.1c11.6,29.8,4.3,51.7,2.2,57.2c13.8,15.1,22.1,34.4,22.1,58c0,83-50.5,101.2-98.5,106.6
	c7.6,6.5,14.6,19.7,14.6,40c0,28.9-0.3,52.1-0.3,59.1c0,5.7,3.8,12.4,14.9,10.3C478.2,392.3,540,311.3,540,216
	C540,96.7,443.3,0,324,0"/>
</svg>
