<?xml version="1.0" encoding="utf-8"?>
<!-- Generator: Adobe Illustrator 18.0.0, SVG Export Plug-In . SVG Version: 6.00 Build 0)  -->
<!DOCTYPE svg PUBLIC "-//W3C//DTD SVG 1.1//EN" "http://www.w3.org/Graphics/SVG/1.1/DTD/svg11.dtd">
<svg version="1.1" id="Layer_1" xmlns="http://www.w3.org/2000/svg" xmlns:xlink="http://www.w3.org/1999/xlink" x="0px" y="0px"
	 viewBox="0 0 648 432" enable-background="new 0 0 648 432" xml:space="preserve">
<path fill="#65CE2E" d="M324,0c-58.7,0-66,0.3-89,1.3c-23,1.1-38.7,4.7-52.4,10c-14.2,5.5-26.3,12.9-38.3,24.9
	c-12,12-19.4,24-24.9,38.3c-5.3,13.8-9,29.4-10,52.4c-1.1,23-1.3,30.4-1.3,89s0.3,66,1.3,89c1.1,23,4.7,38.7,10,52.4
	c5.5,14.2,12.9,26.3,24.9,38.3c12,12,24,19.4,38.3,24.9c13.8,5.3,29.4,9,52.4,10c23,1.1,30.4,1.3,89,1.3s66-0.3,89-1.3
	c23-1.1,38.7-4.7,52.4-10c14.2-5.5,26.3-12.9,38.3-24.9c12-12,19.4-24,24.9-38.3c5.3-13.8,9-29.4,10-52.4c1.1-23,1.3-30.4,1.3-89
	s-0.3-66-1.3-89c-1.1-23-4.7-38.7-10-52.4c-5.5-14.2-12.9-26.3-24.9-38.3c-12-12-24-19.4-38.3-24.9C451.7,6,436,2.3,413,1.3
	C390,0.2,382.7,0,324,0z M324,38.9c57.7,0,64.5,0.3,87.3,1.3c21.1,1,32.5,4.5,40.1,7.5c10.1,3.9,17.3,8.6,24.8,16.1
	s12.2,14.7,16.1,24.8c3,7.6,6.5,19,7.5,40.1c1,22.8,1.3,29.6,1.3,87.3s-0.3,64.5-1.4,87.3c-1.1,21.1-4.6,32.5-7.6,40.1
	c-4,10.1-8.6,17.3-16.2,24.8c-7.6,7.6-14.9,12.2-24.8,16.1c-7.6,3-19.2,6.5-40.2,7.5c-23,1-29.7,1.3-87.5,1.3s-64.5-0.3-87.5-1.4
	c-21.1-1.1-32.7-4.6-40.2-7.6c-10.3-4-17.3-8.6-24.8-16.2c-7.6-7.6-12.4-14.9-16.2-24.8c-3-7.6-6.5-19.2-7.6-40.2
	c-0.8-22.7-1.1-29.7-1.1-87.2s0.3-64.5,1.1-87.5c1.1-21.1,4.6-32.7,7.6-40.2c3.8-10.3,8.6-17.3,16.2-24.8s14.6-12.4,24.8-16.2
	c7.6-3,18.9-6.5,40-7.6c22.9-0.8,29.7-1.1,87.5-1.1L324,38.9z M324,105.1c-61.3,0-110.9,49.7-110.9,110.9
	c0,61.3,49.7,110.9,110.9,110.9c61.3,0,110.9-49.7,110.9-110.9C434.9,154.7,385.2,105.1,324,105.1z M324,288c-39.8,0-72-32.2-72-72
	s32.2-72,72-72s72,32.2,72,72S363.8,288,324,288z M465.2,100.7c0,14.3-11.6,25.9-25.9,25.9s-25.9-11.6-25.9-25.9
	s11.6-25.9,25.9-25.9S465.2,86.4,465.2,100.7z"/>
</svg>
