<?xml version="1.0" encoding="utf-8"?>
<!-- Generator: Adobe Illustrator 18.0.0, SVG Export Plug-In . SVG Version: 6.00 Build 0)  -->
<!DOCTYPE svg PUBLIC "-//W3C//DTD SVG 1.1//EN" "http://www.w3.org/Graphics/SVG/1.1/DTD/svg11.dtd">
<svg version="1.1" id="Layer_1" xmlns="http://www.w3.org/2000/svg" xmlns:xlink="http://www.w3.org/1999/xlink" x="0px" y="0px"
	 viewBox="0 0 648 432" enable-background="new 0 0 648 432" xml:space="preserve">
<path fill="#65CE2E" d="M439.2,354.6l-8.3,13.5l24,12l82.6,41.3c4.5,2.3,8.9,3.3,12.6,3.3c8.4,0,14.1-5.3,14.1-14.8V151.5
	L439.2,354.6L439.2,354.6z M562.5,93.6c-0.1-0.1,0-0.3-0.1-0.4L417.1,20.6c-1.8-0.9-3.7-1.1-5.6-1.3c-0.5,0-0.9-0.3-1.4-0.3
	c-5.5,0-11.1,2.8-14.1,7.6l-7.2,11.7l-15.1,24.5l-56.9,92.7l56.9,92.6l15.1,24.5l15.1,24.4l17.8,28.6l141.8-230
	c0.6-0.9,0.3-1.8-0.6-2.4L562.5,93.6z M373.7,305.6l-74.7-121.4l-8.9-14.4l-8.9-14.4l-7.5-12.5v146.5l99.9,50.1l15.1,7.5l15.1,7.5
	l-15.1-24.5L373.7,305.6L373.7,305.6z M105.4,25l-4.4-2.2c-2.6-1.3-5-1.9-7.2-1.9c-6.2,0-10.5,4.8-10.5,12.9v305.9
	c0,8.2,6,17.9,13.3,21.6l124.8,62.6c3.2,1.8,6.3,2.4,9,2.4c7.7,0,13.2-6,13.2-16V95.1c0-0.6-0.4-1.2-0.9-1.4L105.4,25L105.4,25z"/>
</svg>
