<?xml version="1.0" encoding="utf-8"?>
<!-- Generator: Adobe Illustrator 18.0.0, SVG Export Plug-In . SVG Version: 6.00 Build 0)  -->
<!DOCTYPE svg PUBLIC "-//W3C//DTD SVG 1.1//EN" "http://www.w3.org/Graphics/SVG/1.1/DTD/svg11.dtd">
<svg version="1.1" id="Layer_1" xmlns="http://www.w3.org/2000/svg" xmlns:xlink="http://www.w3.org/1999/xlink" x="0px" y="0px"
	 viewBox="0 0 648 432" enable-background="new 0 0 648 432" xml:space="preserve">
<path fill="#65CE2E" d="M128.9,219.5c-0.9,0-1.7,0.8-1.8,1.8l-4.2,38.8l4.2,37.9c0.1,1,0.9,1.8,1.8,1.8c0.9,0,1.6-0.7,1.8-1.8
	l4.6-37.9l-4.9-38.8c0-1-0.8-1.8-1.6-1.8 M112.6,234.4c-1.1,0-1.6,0.7-1.9,1.7l-3,24l3,23.5c0,1,0.8,1.7,1.6,1.7
	c0.8,0,1.6-0.8,1.9-1.9l3.8-23.8l-3.8-24c0-1.1-0.8-1.6-1.6-1.6 M145.5,211.9c-1.1,0-2.2,0.8-2.2,1.9l-3.8,46.2l4,44.3
	c0,1.1,0.8,2.2,2.2,2.2c1.1,0,1.9-1.1,2.2-2.2l4.6-44.5l-4.6-45.9c-0.3-1.1-1.1-2.2-2.2-2.2 M162.8,210c-1.3,0-2.4,1.1-2.7,2.4
	l-3.5,47.5l3.8,45.8c0.3,1.4,1.3,2.5,2.7,2.5s2.4-1.1,2.7-2.7l4.3-45.6l-4.3-47.3c0-1.4-1.1-2.4-2.4-2.4L162.8,210z M183.6,216.5
	c-0.1-1.6-1.4-2.7-2.9-2.7c-1.6,0-2.9,1.1-3,2.7l-3.9,43.8l3.6,46.2c0,1.6,1.4,2.8,2.9,2.8c1.4,0,2.7-1.2,2.7-2.9l4.1-46.2l-4.1-44
	L183.6,216.5z M198.2,185.7c-1.8,0-3.2,1.6-3.2,3.2l-3.8,71.3l3.3,46.2c0,1.6,1.5,3,3.2,3c1.7,0,3.1-1.6,3.2-3.2l3.8-46.2l-3.8-71.6
	c-0.1-1.9-1.6-3.2-3.2-3.2 M215,168.7c-1.9,0-3.5,1.6-3.6,3.5l-3.2,87.8l3,45.9c0,2.2,1.6,3.8,3.5,3.8c1.9,0,3.5-1.6,3.8-3.8
	l3.5-45.9l-3.5-87.5c-0.3-2.2-1.9-3.8-3.8-3.8 M232.4,160.6c-2.2,0-3.8,1.6-4.1,3.8l-3,95l3,45.4c0.3,2.2,1.9,4,4.1,4s4.1-1.9,4.1-4
	l3.5-45.4l-3.5-95c0-2.2-1.9-4.1-4.1-4.1 M254.9,161.2c0-2.4-1.9-4.3-4.3-4.3c-2.2,0-4.3,1.9-4.3,4.3l-2.7,98l2.7,45.1
	c0.3,2.4,2.2,4.3,4.6,4.3c2.4,0,4.3-1.9,4.3-4.3l3-45.1l-3-98.3L254.9,161.2z M268.4,158.7c-2.4,0-4.6,2.2-4.6,4.6l-2.7,95.8
	l2.7,44.5c0,2.7,2.2,4.6,4.6,4.6c2.4,0,4.6-2.2,4.6-4.9l2.7-44.5l-3-95.6c0-2.7-2.2-4.9-4.9-4.9 M285.9,161.4c-3,0-5.1,2.4-5.1,5.1
	l-1.9,92.6l2.4,44.5c0,2.7,2.2,5,5.1,5c2.7,0,4.9-2.2,5.1-5.1l2.2-44l-2.4-92.1c-0.2-3-2.4-5.1-5.1-5.1 M307.5,145.4
	c-0.8-0.5-1.9-0.8-3-0.8c-1.1,0-2.2,0.3-3,0.8c-1.6,1-2.7,2.7-2.7,4.6v1.1L297,260l2.1,44.1v0.1c0.1,1.1,0.5,2.4,1.4,3.2
	c1,1.1,2.5,1.9,4.2,1.9c1.5,0,2.8-0.8,3.8-1.6c1-1.1,1.6-2.4,1.6-4l0.3-4.3l2.1-39.7L310,150.1c0-1.9-1.1-3.5-2.4-4.3L307.5,145.4z
	 M325.6,135.5c-0.8-0.8-1.6-1.1-2.7-1.1c-1.4,0-2.7,0.3-3.8,1.1c-1.4,1.1-2.2,2.7-2.2,4.3v0.5l-2.4,119.1l1.4,21.9l1.1,21.3
	c0,3,2.7,5.7,5.9,5.7c3.2,0,5.9-2.7,5.9-5.9l2.7-43.5l-2.7-119.6c0-2.2-1.4-4-3-5 M486.8,202.4c-7.3,0-14.3,1.5-20.5,4.2
	c-4.3-47.8-44.3-85.3-93.4-85.3c-11.9,0-23.5,2.4-34,6.5c-4,1.6-4.9,3.2-5.1,6.5V303c0.3,3.2,2.7,5.9,5.9,6.2h147.4
	c29.2,0.3,52.9-23.2,52.9-52.6c0-29.4-23.8-53.2-52.9-53.2"/>
</svg>
