<?xml version="1.0" encoding="utf-8"?>
<!-- Generator: Adobe Illustrator 18.0.0, SVG Export Plug-In . SVG Version: 6.00 Build 0)  -->
<!DOCTYPE svg PUBLIC "-//W3C//DTD SVG 1.1//EN" "http://www.w3.org/Graphics/SVG/1.1/DTD/svg11.dtd">
<svg version="1.1" id="Layer_1" xmlns="http://www.w3.org/2000/svg" xmlns:xlink="http://www.w3.org/1999/xlink" x="0px" y="0px"
	 viewBox="0 0 648 432" enable-background="new 0 0 648 432" xml:space="preserve">
<path d="M563.3,67.5c-17.7,7.8-36.5,13.1-56.4,15.5c20.3-12.2,35.8-31.4,43.2-54.3c-19,11.1-40,19.1-62.4,23.6
	c-17.9-19.1-43.4-31.1-71.7-31.1c-54.2,0-98.2,44-98.2,98.1c0,7.8,0.9,15.3,2.5,22.4c-81.6-3.9-154-43.1-202.4-102.3
	c-8.5,14.4-13.3,31.1-13.3,49.4c0,34.1,17.4,64.1,43.7,81.7c-16.1-0.5-31.3-4.9-44.5-12.3v1.2c0,47.6,33.8,87.3,78.8,96.3
	c-8.3,2.2-16.9,3.4-25.9,3.4c-6.3,0-12.3-0.6-18.3-1.7c12.6,39,48.8,67.4,91.9,68.2c-33.5,26.3-76,42-121.8,42
	c-7.8,0-15.6-0.4-23.3-1.3c43.7,27.8,95.1,44.1,150.8,44.1c180.7,0,279.5-149.6,279.5-279.2c0-4.2,0-8.4-0.3-12.6
	c19.1-13.8,35.9-31.1,49.1-50.9L563.3,67.5z"/>
</svg>
