<?xml version="1.0" encoding="utf-8"?>
<!-- Generator: Adobe Illustrator 18.0.0, SVG Export Plug-In . SVG Version: 6.00 Build 0)  -->
<!DOCTYPE svg PUBLIC "-//W3C//DTD SVG 1.1//EN" "http://www.w3.org/Graphics/SVG/1.1/DTD/svg11.dtd">
<svg version="1.1" id="Layer_1" xmlns="http://www.w3.org/2000/svg" xmlns:xlink="http://www.w3.org/1999/xlink" x="0px" y="0px"
	 viewBox="0 0 648 432" enable-background="new 0 0 648 432" xml:space="preserve">
<path fill="#65CE2E" d="M539.8,115.4c-1.9,42.1-31.3,99.8-88.1,173.1C392.8,365,343.1,403.2,302.4,403.2c-25.4,0-46.4-23.3-64-69.9
	l-34.5-128.1c-13-46.5-26.8-69.8-41.6-69.8c-3.2,0-14.5,6.8-33.9,20.4L108,129.5c21.3-18.8,42.3-37.5,63-56.3
	c28.4-24.6,49.8-37.5,64-38.9c33.6-3.2,54.3,19.8,62.1,69.1c8.4,53.2,14.2,86.2,17.5,99.2c9.7,44.1,20.4,66.1,32,66.1
	c9,0,22.6-14.3,40.8-42.9c18.1-28.6,27.8-50.4,29.1-65.3c2.6-24.7-7.1-37.1-29.1-37.1c-10.3,0-21,2.2-32,7
	c21.3-69.7,61.8-103.7,121.8-101.5c44.6,1.1,65.3,30,62.9,86.4L539.8,115.4z"/>
</svg>
