<?xml version="1.0" encoding="utf-8"?>
<!-- Generator: Adobe Illustrator 18.0.0, SVG Export Plug-In . SVG Version: 6.00 Build 0)  -->
<!DOCTYPE svg PUBLIC "-//W3C//DTD SVG 1.1//EN" "http://www.w3.org/Graphics/SVG/1.1/DTD/svg11.dtd">
<svg version="1.1" id="Layer_1" xmlns="http://www.w3.org/2000/svg" xmlns:xlink="http://www.w3.org/1999/xlink" x="0px" y="0px"
	 viewBox="0 0 648 432" enable-background="new 0 0 648 432" xml:space="preserve">
<path fill="#65CE2E" d="M535.7,128.4c0,0-4.2-29.8-17.2-42.9c-16.4-17.2-34.8-17.3-43.3-18.3C414.8,62.9,324,62.7,324,62.7
	s-112.3,1-146.9,4.3c-9.6,1.8-31.2,1.3-47.6,18.5c-13,13.1-17.2,42.8-17.2,42.8s-4.3,35-4.3,69.9v34c0,35,4.3,69.9,4.3,69.9
	s4.2,29.7,17.2,42.8c16.4,17.2,38,16.7,47.6,18.5c34.6,3.3,146.9,4.3,146.9,4.3s90.8-0.1,151.2-4.5c8.5-1,26.9-1.1,43.3-18.3
	c13-13.1,17.2-42.9,17.2-42.9s4.3-34.9,4.3-69.9v-34C540,163.3,535.7,128.4,535.7,128.4z M279.5,272L279.5,272l-0.1-121.4
	l116.7,60.9L279.5,272z"/>
</svg>
